<svg xmlns="http://www.w3.org/2000/svg"
	xmlns:xlink="http://www.w3.org/1999/xlink" x="0px" y="0px" viewBox="0 0 260 55.3" style="enable-background:new 0 0 260 55.3;" xml:space="preserve">

	<g>
		<g>
			<g transform="translate(0 0)">
				<path d="M60,53.5c-0.6,0-1.9,0.1-5.4,0.4C53.5,54,52.4,54,51.3,54c-0.1-0.1-0.2-0.1-0.4,0h-1.8c-1.1,0-2.3,0-2.6,0s-1.3,0-2.3,0     h-1.3c-0.3,0-0.6,0-0.6,0c1.3-0.2,2.6-0.3,3.9-0.3l1.1,0.2c0.5,0.1,1.1,0.1,1.6,0.1l5.3-0.3c2.1-0.1,4-0.3,4.1-0.3     c0.7-0.1,1.5-0.1,2.2-0.1C61.7,53.3,61.2,53.5,60,53.5 M68.4,53.3c-1.4-0.1-2.7,0-4,0.1c-1.5,0.1-0.5,0.2,2,0.1     C68.2,53.5,68.4,53.4,68.4,53.3 M139.8,50.4c0.4-0.1,0.4-0.1-0.1-0.2c-1.3,0-2.5,0-3.8,0.1c-1.2,0.1-1.5,0.2-0.4,0.2     C136.9,50.6,138.4,50.6,139.8,50.4 M142.1,49.7c1.5-0.1,1.9-0.1,1.1-0.1c-0.9,0-1.8,0-2.7,0.2C141,49.7,141.5,49.7,142.1,49.7      M226.6,45.7l-1.9,0.1c-1.4,0.1-0.8,0.1,1.2,0C227.9,45.7,228.4,45.6,226.6,45.7 M31.7,53.6c0.8-0.1,0.8-0.1-0.6-0.1     c-0.5,0-1.1,0-1.6,0.2C30.2,53.9,31,53.8,31.7,53.6 M31.6,54.1c-0.6,0-1.3,0.1-1.6,0c-0.7,0-1.7,0-1.4,0.1c0.6,0,1.2,0,1.7,0     c0.6,0,1.2,0,1.9,0c0.8,0.1,1.6,0,2.4-0.1C35.2,54.1,32.9,54,31.6,54.1 M38.2,53.6c-0.3,0-0.7,0.1-1,0.1     C38.4,53.8,38.8,53.7,38.2,53.6 M40.2,54.2c-3.4,0.2-3.5,0.2-0.4,0.1c0.9,0,1.8,0,2.7-0.2C41.8,54.1,41,54.1,40.2,54.2      M186.3,47.7c-0.4,0-0.5,0-0.3-0.1c0.4-0.1-0.2-0.1-2.7,0.1c-2.3,0.2-1.9,0.3,0.7,0.2h1.3c0.2,0,0.4,0,0.6,0c1,0,1.2-0.1,1.2-0.1     C186.8,47.7,186.5,47.6,186.3,47.7 M190,47.3c-0.8,0-1.6,0-2.4,0.1c-0.2,0.1,0.7,0.1,2.3,0.1C191.7,47.5,191.8,47.3,190,47.3      M173.8,48c-0.7,0-1.4,0-2.1,0.1C172.3,48.2,173.1,48.2,173.8,48 M259.9,35.5c0,1.3,0.1,2.8,0.1,4.2c-0.1-0.4-0.2-0.7-0.3-1.1     c-0.1-0.5-0.1-0.4-0.2,0.2s-0.1,0.7-0.1,0.1c-0.1-1.2-0.1-1-0.1,0.8c0,0.4,0,0.8,0,1.6l-2.3,0.1c-0.6,0.1-1.3,0.2-1.9,0.2     c-1.9,0.2-2,0.2-1.4,0.4c0.5,0.1,1,0.2,1.5,0.3c0.5,0,0.9,0.2,0.8,0.3s0.4,0.2,1.7,0.3c2.4,0.1,1.9,0.2-2.4,0.2h-4.7     c-1.1,0-1.3,0.1-0.8,0.2c0.2,0,0.6,0.1,1.1,0.1l0.9,0.1h1.3c3.8,0,4,0.1,2,0.2h-1.9H252h-1h-4.6c-5.4-0.1-6-0.2-4.4-0.6     c-0.9-0.1-1.8,0-2.6,0.1c-0.2,0-1.9,0.2-3.6,0.3c-1.8,0.2-3.6,0.3-5.4,0.1c-0.6,0-1.1,0-1.7,0c-1.1,0.1-2.3,0.1-3.4,0     c0.2-0.1,0-0.1-1,0c-1.2,0.1-2.1,0.2-1.7,0.3c0.1,0,0,0.1-0.2,0.1s-0.1,0.1,0.4,0.1c0.9,0-2.5,0.2-3.8,0.2c-0.4,0-1.3,0-2.4,0.1     c0.9,0,3.4,0,3.4,0.1c-0.6,0.1-1.1,0.1-1.7,0.1c-1,0-2.2,0.1-3,0.1c-1.1,0-1.5,0-1.3-0.1s0-0.1-1,0c-0.4,0-0.8,0-1.2,0.1     c-1.8,0.2-3.6,0.3-5.4,0.3c-2.2,0-2.7,0-7.7,0.2c-1.9,0.2-3.9,0.2-5.8,0.2c-0.6,0-1.2,0-1.8,0c-0.8,0-3.2,0.1-5.5,0.2l-4.3,0.1     h-2.5c-2.1,0-4.2,0.1-6.4,0.3c0.1,0.1-0.7,0.1-2.4,0.1c-1.2,0-3.4,0.1-7.7,0.5h-0.5c0-0.1-0.1-0.1-0.2-0.1c0,0.1,0,0.1,0,0.2     c-2.3,0.2-3.4,0.2-4.3,0.2c-0.3,0-1.9,0-3.4,0.1l-5.6,0.2c-5.4,0.2-10.1,0.4-10.7,0.5c-0.5,0.1-0.4,0.1,0.1,0.1     c0.3,0,0.6,0,0.9,0.1c0.3,0.3,1.1,0.4,2.7,0.4c1.2,0,1.4,0,1.2,0.1c-0.1,0.1,0,0.1,0.4,0.1c1.2,0,1,0.2-0.3,0.2l-2.4,0.1     c-0.4,0-0.9,0-1.3,0c-1.1,0-2.2,0-3.3,0.2c-1,0.2-10.6,0.8-12.4,0.7c-0.4,0-0.6,0-0.9,0c-0.1-0.3-0.3-0.3-0.5,0     c-0.3,0-0.6,0-1,0.1c-0.8,0.1-2,0.1-2.8,0.2c-1.6,0-3.3,0.1-4.9,0.4c-0.4,0.1-0.8,0.2-1.1,0.1c-0.4,0-1.4,0-2.1,0     c-0.6,0-1.2,0-1.7,0c-1.9,0-3.7,0-5.6,0.2c-1,0.1-1.9,0.1-2.9,0s-1.9,0-2.9,0.1c-0.5,0.1-1.7,0.1-4.2,0.3c-1.3,0-2.7,0.1-4,0.3     c-0.6,0.1-1.3,0.2-1.9,0.2c-0.9,0-1.7,0.1-2.6,0.2c-0.6,0.1-2,0.2-3.1,0.3c-1.9,0.1-1.9,0.1-0.9-0.1c0.9-0.2,1.7-0.3,2.6-0.3     c-0.3,0-0.1-0.1,0.7-0.2c0.4,0,0.8-0.1,1.2-0.2c-1.1,0-2.2,0-3.4,0.2c-0.4,0.1-1.8,0.2-3.1,0.2c-1.1,0.1-2.2,0.1-3.4,0     c-0.8-0.1-1.5-0.1-2.3,0c-0.7,0-1.4,0-2.1,0c-0.1,0-0.2,0-0.4,0c0.2,0,0.5-0.3,0.5-0.4c0-0.3-0.5-0.2-0.6,0.1     c-0.1,0.2-0.1,0.3,0,0.3c-0.6,0-1.8,0-3.3,0c-3.8,0.1-3.7,0.1-3.1-0.1c0.3-0.1,0.2-0.2,0.2-0.2c-0.5,0-4.5,0.5-5,0.6     c-0.6,0.2-2.6,0.2-2.4,0c0.1-0.1-0.3-0.1-2.4,0l-4.1,0c-0.5,0-1.1,0-1.6,0c1.1-0.2,2.2-0.2,3.3-0.2c2.2-0.1,3.5-0.2,2.2-0.2     c-1.5,0-1.1-0.2,0.6-0.2c1.9-0.1,2.4-0.1,1.7-0.3c-1.1-0.1-2.2-0.1-3.2,0.1c-1.9,0.2-3.8,0.3-5.7,0.3c-0.4,0-0.9,0-1.3,0     c-0.4,0-0.9,0-1.3,0c0-0.1,0.3-0.1,1.5-0.1c1.7,0,3.4-0.2,5.1-0.4c-0.3,0-0.6,0-0.9,0l-2.2,0.1c-1.7,0.1-3.7,0.2-4.8,0.3     c-1,0.1-2.7,0.2-3.9,0.2c-1.1,0-2.3,0.1-3.4,0.3c-1.2,0.2-2.5,0.3-3.7,0.2c0.8-0.1,0.8-0.1,0-0.1c-0.5,0-1,0.1-1.5,0.2     c-1,0.2-2.3,0.2-2,0c0.3-0.1,0.2-0.1-3,0L21,52.5c-0.8,0-3,0.1-4.9,0.1c-5.3,0.1-6.8,0.2-7.5,0.4c-0.8,0.1-1.6,0.2-2.4,0.3     c0-1,0-2.1,0-2.9c0-0.6,0.1-0.4,0.2,0.6c0.2,1.6,0.3,1.1,0.3-1.3c0-0.9,0-2.7,0.1-4c0-0.7,0-1.5,0.1-2.3c0-0.6,0-1.2,0-1.8     c0-0.9,0-1.8,0.1-2.7c0.2-1.7,0.1-3.4-0.1-5.1c-0.1-0.4-0.1-0.7-0.1-1.1c0-0.9,0.2-0.9,0.3,0c0-0.5,0.1-0.9,0.1-1.4     c0.1-0.8,0.1-1.6,0.1-2.3c0-1.8,0.1-2.2,0.2-0.8c0.1,0.7,0.1,1.4,0,2.1c0,1.2,0,2.3,0.1,3.5c0.2,2.3,0.2,3,0.1,3.2     c-0.1,0.3-0.1,0.6-0.1,0.9c0,0.8,0.1,1.7,0.2,1.4c0.1-0.2,0.1,0.5,0,1.3H7.7c-0.5-0.1-0.6,0,0,0.5l0.1,0.1c0,0.5,0,1.3,0,2.8     c0,1.4,0.1,3.3,0.1,4.3c0,1.2,0,1.8,0.1,1.7c0-0.1,0.2,0.1,0.2-0.7c0-1.1,0-2.3-0.1-3.4c-0.2-2.2-0.1-4.8,0.1-3.3     c0.1,0.4,0.1,0.5,0.2,0.2c0.1-0.3,0.1,0,0.2,0.7v-2.7c0,0.1,0,0.2,0,0.2c-0.1-0.6-0.1-1.3-0.1-2c0-0.2,0-0.9-0.1-1.6     c-0.1-0.8-0.1-1.7,0.1-2.5c0.1-0.3,0.1-0.6,0.1-0.9V22.3c-0.5,0.5-0.8,1.1-1.4,1.6c-0.2,0.2-0.4,0.3-0.6,0.4s-0.5,0-0.6-0.1     c0-0.2-0.1-0.4-0.1-0.6c-0.2-1.3-0.4-2.6-0.6-4c-0.1-0.7-0.1-1.4-0.1-2.1c0.1-0.5,0.3-1,0.6-1.4c-0.1,0-0.2,0-0.4,0     C5.3,16,5.2,16,5,16.1c-0.1,0-0.2,0.1-0.3,0.1c-0.2,0-0.5,0.2-0.5,0.3c0,0.3-1.2,0.3-1.4,0c-0.1-0.1-0.2-0.2-0.3-0.3     C2.1,16,2.3,15.6,3,15.3c0.6-0.3,0.6-0.4,0.2-0.5s-0.5-0.2,0-0.3c-0.1-0.1-0.5-0.1-0.8,0c-0.1,0.1-0.3,0.1-0.4,0.1     c-0.3,0-0.9-2.3-0.6-2.8c0.2-0.6,0.4-1.2,0.5-1.9c0.2-0.8,0.2-0.8,0.9-1C3.1,9,3.5,8.8,3.9,8.5c0.4-0.4,1-0.6,1.7-0.5     C6.4,8,7.3,7.8,8,7.4c1.6-0.7,3.4-0.9,5.2-0.7c0.9,0,2.4,0,3.4,0s2.2,0,2.8,0s1.7,0,3.2,0c0.2,0.3,0.5,0.5,0.9,0     c3.3-0.1,7.4-0.3,9.3-0.5C33.3,6,33.9,6,34.1,6c0.3,0,0.9-0.1,2.8-0.3c0.5-0.1,5.1-0.3,5.6-0.3l26.6-0.7l13.6-0.3l0,0     c0.8-0.2,1.7-0.3,2.5-0.3c0.4,0,1.3,0,1.9,0c0.4,0,0.8,0,1.2,0c0.7,0.1,1.4,0.1,2.1,0c0.4,0,1.2-0.1,1.8-0.1c0.5,0,1-0.1,1.4-0.1     c0.7-0.1,1.4-0.1,2.1-0.1c0.9,0.1,1.9,0.1,2.8,0c0.4,0,0.2-0.1-0.6-0.1c-0.7,0-1,0-1.1-0.1c-1.1,0-0.8-0.1,1.4-0.2     c1.7-0.1,2.1-0.2,2-0.3s1.1-0.2,2.9-0.2c0.7,0,0.7,0,0,0.2c-1.2,0.2-1,0.3,1,0.3c2.2,0,7.6-0.2,10.1-0.4c2.4-0.2,2.7-0.2,1.9-0.1     s0.1,0.2,1.8,0.1c0.4,0,0.8,0,1.2-0.2c0.1-0.1,0.1-0.1,5-0.3c5.7-0.2,5.5-0.2,3.1,0c-2.1,0.2-2,0.3,0.2,0.1     c0.8,0,1.9-0.1,2.5-0.1c2.3,0,5.8-0.1,7.2-0.2c1.3-0.1,1.2-0.1-0.7,0c-1.1,0-2.3,0-2.5,0c-0.4,0-0.9,0-1.3,0     c-1.4,0.1-0.7-0.1,0.9-0.2c1.2-0.1,2.3-0.2,3.5-0.5c1.3-0.2,2.6-0.3,3.9-0.2c1.7,0,2.6-0.1,3.2-0.1c0.4,0,2.1-0.1,3.6-0.2     s3.2-0.2,3.5-0.2s1.4-0.1,2.3-0.2s1.9-0.1,2.2-0.1c1.3-0.1,5.9-0.4,6.3-0.3c0.6,0,1.2,0,1.7,0c0,0.1,0,0.2,0,0.2     c-1.8,0.1-2.4,0.2-2.4,0.3c-0.3,0-0.8,0.1-1.3,0.2c-1.1,0.1-2.2,0.2-3.3,0.2c-1.8,0-3.5,0.1-5.3,0.4C148,2,148,2,150.4,1.8     l4.7-0.2c1.5-0.1,2.4-0.1,2.6-0.2c0.3-0.1,3.2-0.3,4-0.3c0.3,0,0.4,0,0.1,0.1c-0.7,0.2,0.1,0.3,1.5,0.2l1.8-0.1     c-1,0.1,0.1,0.1,2.4,0c1.3-0.1,1.7-0.1,1.5-0.2C168.7,1,170,1,171,1c0.5,0,1,0,1.5-0.1s0.5-0.1-0.7-0.1c0.7-0.1,1.3-0.1,3.3-0.2     c1.7,0,2.5-0.1,2.8-0.1c0.4-0.1,5.5-0.3,6-0.3c0.2,0,0.1,0.1-0.3,0.1c-0.5,0.1-0.5,0.1,0.1,0.1c0.4,0,0.6,0.1,0.5,0.1     c-0.6,0.2,2.3,0.3,4.2,0.3c0.9,0,1.8-0.1,2,0c0.3,0,1.2,0,2.7-0.1c1.7-0.1,2-0.1,1.4,0c-0.8,0.1-0.8,0.1,0,0.1     c0.4,0,0.6,0,0.5,0.1c0.2,0,0.3,0,0.4,0c0,0,0,0.1-0.4,0.1s-1.1,0.1-1.9,0.2c1.4,0.2,2.9,0.2,4.4,0c2.6-0.2,2.4-0.1-0.5,0.2     c-2.3,0.2-2.4,0.3-1.1,0.2c0.1,0,0.3,0,0.5,0l0.1-0.1c0.4-0.1,0.8-0.1,1.2-0.1c0.2,0,0.5,0,0.7,0s0.3,0,0.5-0.1     c1.2-0.2,2.5-0.3,3.7-0.3c-0.8,0.2-1.7,0.3-2.5,0.3c-0.6,0-0.9,0.1-0.7,0.1c0.6,0,1.2,0,1.9-0.1c0.8-0.1,2-0.2,2.7-0.2     c0.9,0,1.2-0.1,2.4-0.2c2,0.1,1.5,0.3-0.9,0.4c-0.2,0-0.5,0.1-0.7,0.1c-0.2,0.1-0.4,0.2-0.6,0.2C204,1.9,204.3,2,204.9,2     c0.7,0,0.9,0.1,0.7,0.1c-0.2,0.1,0,0.1,0.9,0.1s1.3,0,1.2,0.1s0.3,0.1,1.2,0c1.6-0.2,3.2-0.3,4.8-0.2c1.3,0.1,2.6,0.1,3.9-0.1     c0.4-0.1-0.1-0.2-2.4-0.1c0.4,0,0.5-0.1,0.3-0.1c1.2-0.1,2.4-0.2,3.6-0.2c2,0,2.9,0.1,1.9,0.3C220.3,2,220.4,2,221.5,2     c1.3-0.1,2.5-0.1,3.8,0.1c-0.1,0,0.3,0.1,0.9,0h2.3c1.7,0,4.6-0.2,5.4-0.3c1.3-0.2,2.7-0.2,4-0.1c0.3,0,1.1,0.1,1.8,0.1     c1.3,0.1,3.2,0.4,2.7,0.5c-0.4,0.1,1.3,0.3,2.4,0.3c0.3,0,0.6,0,0.9,0.1c-0.8,0.1-1.6,0.2-2.4,0.2c-0.5,0-0.9,0.1-0.9,0.1     c-1.2,0.3-2.5,0.4-3.8,0.3c-0.7,0-1.4,0-1.6,0.1s-1.3,0.1-2.4,0.1c-1.7,0.1-1.9,0.1-1.8,0.2l13.5-0.5c0,0.1,0.1,0.1,0.3,0l10-0.4     c0-0.1,0.1-0.1,0.1,0h0.9c-0.1,0.1-0.1,0.1-0.2,0.2c-0.2,0.2-0.2,0.3,0,0.5c0.7,0.8,1-0.3,0.7-0.7h0.1V6c0.2,0,0.2,0.1,0,0.1v8.7     l0.1,0.1c0.2,0.6,0.4,1.2,0.4,1.8c0.1,0.9,0.1,1.8,0,2.7c-0.2,1.9-0.4,2.8-0.5,2.8v5.6c0.1-0.9,0.1,0.5,0,1.8c0,0.3,0,0.4,0,0.6     v5.6c0-0.3,0-0.2,0.1,0.2c0,0.5,0.1,0.6,0.1,0.4c0-0.3,0.1-0.2,0.2,0.2c0,0.1,0,0.1,0,0.2c-0.1,0-0.2,0.1-0.3,0.2     c-0.2,0.2-0.1,0.3,0.1,0.6c1.1,1.1,0.8-0.6,0.3-0.8c0-0.2,0.1-0.6,0.2-1.3c0.1-0.5,0.1-1,0.1-1.3c0-0.2,0-0.4,0.1-0.5     c0.1-0.5,0.1-1,0.2-1.5c0.1-1.7,0.5-1.1,0.4,0.7c0,0.3,0,0.7,0,1.1C259.9,34.3,259.9,34.9,259.9,35.5 M2.8,13.5     c-0.1,0.4,0.5,0.7,0.8,0.4C4,13.4,3.2,12.4,2.8,13.5 M10.1,50.5c0.3,0.3,0.8,0.4,1,0.2C12.2,48.8,9.3,49.8,10.1,50.5 M12.4,11.3     l-0.8,1C11.6,13,13.2,11.3,12.4,11.3 M13.3,21.4c0.5-0.9-0.8,0-0.8,0.2C12.7,21.9,13.1,21.8,13.3,21.4 M13.3,38.2     c0,0.2,0.1,0.4,0.2,0.5C13.6,38.3,13.4,38.2,13.3,38.2 M16.1,33.6c-0.3,0,0.1,0.6,0.1,0.7C16.1,34.2,16.3,33.6,16.1,33.6      M20.1,42.3c-0.2,0.1-0.4,0-0.5-0.2c-0.1-0.3-0.3-0.3-0.5,0c0,0.2,0,0.5,0.2,0.7C20.3,44.3,20.9,42.2,20.1,42.3 M26.6,48.7     c-0.3-0.1-1.1,0.4-0.9,0.5C26.3,49.9,27.5,49.1,26.6,48.7 M34.6,10.9c0-0.1-0.2-0.2-0.4-0.2C34.5,11.1,34.6,11.1,34.6,10.9      M35.5,47.7c-0.5,0-0.7,0-0.7,0.3C34.8,49.1,37.7,47.7,35.5,47.7 M37.3,37.8c-0.2-0.2-1,0.3-0.9,0.5C36.6,39,37.5,37.9,37.3,37.8      M43.5,49.6c-0.3,0,0.1,0.6,0.1,0.7C43.6,50.2,43.8,49.6,43.5,49.6 M44.8,41.3c0-1.1-2.3-1.7-1.1-0.3     C43.9,41.3,44.8,41.5,44.8,41.3 M46.6,11.9c-0.4-0.2-1.9,0.9-0.2,0.6C47,12.4,47.1,12.1,46.6,11.9 M52.4,39.8     c-0.2,0-0.3,0.1-0.4,0.3C51.9,40.4,52.2,40.3,52.4,39.8 M56.3,8.3c0.9,0.5,1-0.8,0.4-0.4c-0.2,0-0.3,0-0.4-0.1     C56,8,56.2,8.2,56.3,8.3 M56.4,48c0,0.6,0.2,0.6,0.6,0.1C57.6,47.2,56.4,47.1,56.4,48 M57.1,13.2c-0.2,0.2-0.2,0.3,0,0.5h0.8     C58,13.2,57.8,12.4,57.1,13.2 M61.6,45.2c-0.3,0,0.1,0.6,0.1,0.7C61.7,45.8,61.8,45.2,61.6,45.2 M65.5,6.5     c-1.2-0.3-1.1,0.9,0,0.7C66.1,7.1,66.1,6.7,65.5,6.5 M69.5,41c-0.8-0.3-1.6-0.4-2.4-0.2c-0.1-0.2-1-0.3-1-0.1     C66.1,41.7,70.2,41.9,69.5,41 M72.7,10.5c0.1,0.1,0.2,0.1,0.4-0.1C73.6,9.8,72.2,10,72.7,10.5 M74.1,38.1     c0.1,0.1,0.2,0.1,0.4-0.1C75.1,37.4,73.7,37.7,74.1,38.1 M77.2,46.3c0-0.3-0.5-0.2-0.6,0.1C76.3,47.1,77.2,46.5,77.2,46.3      M77.7,7.1c0.2,0.3,0.6,0.2,0.8-0.2C79,6,77.6,6.9,77.7,7.1 M83.8,37.7c0,0.1,0.2,0.2,0.4,0.2C85.3,37.9,83.8,37.3,83.8,37.7      M85.7,4.4c0-0.1-0.2-0.2-0.4-0.2C85.5,4.7,85.7,4.7,85.7,4.4 M89.1,9.7c-0.1,0.5,0.5,0.6,0.4,0.3C89.4,9.8,89.3,9.7,89.1,9.7      M89.5,44c-0.2-0.2-1.6,0.2-1.6,0.5s0.7,0.7,1,0.6C88.4,45.9,90.5,45,89.5,44 M97,11.3c-0.8-0.3-1.6-0.4-2.4-0.2     c-0.1-0.2-1-0.3-1-0.1C93.6,12,97.7,12.2,97,11.3 M98.5,44.4c0-0.6-1.8,1.4-1.4,0.3c0.1-0.4-0.3-0.5-0.6,0.2     c0.4,0-0.2,0.8,1.3,0.9c0.1-0.4,0.2-0.7,0.5-1C98.3,44.7,98.4,44.6,98.5,44.4 M97.1,4c-2.1-0.1-1.8,0.8-2.2,0.4     c-0.8-0.9,0.4,1.8,0.5,1.4c0-0.4,0.4-0.7,1.1-0.6c0-0.6,2.3,0.3,2.7-0.5C100.4,2.1,99.4,4.1,97.1,4 M104.3,10     c0-0.3-0.5-0.5-0.6-0.3C103.9,10.3,104.3,10.2,104.3,10 M105.3,41.2c-0.7-0.1-0.2,1.1,0.3,0.6C105.9,41.6,105.8,41.3,105.3,41.2      M107.8,48.6c0.3,0.3,0.8,0.4,1,0.2C109.9,47,107.1,47.9,107.8,48.6 M112.7,40.5c0-0.2-0.2-0.3-0.3-0.4     C112.6,40.6,112.7,40.7,112.7,40.5 M117.1,7.9c0.5,0.6,1.4-0.2,0.5-0.6s-0.4-1.6-1.5-0.7C114.8,7.7,116.7,7.3,117.1,7.9      M118.3,47.4c-2.1-0.1-1.8,0.8-2.2,0.4c-0.8-0.9,0.4,1.8,0.5,1.4c0-0.5,0.4-0.7,1.1-0.6c0-0.6,2.3,0.3,2.7-0.5     C121.6,45.4,120.5,47.5,118.3,47.4 M124.4,38.8c0.3,0.3,0.8,0.4,1,0.2C126.5,37.1,123.7,38.1,124.4,38.8 M125.2,9.6     c-1.2,0.2,0.4,0.5,0.6,0.2C126,9.5,125.9,9.4,125.2,9.6 M131.9,37.7c-0.2,0.1-0.4,0-0.5-0.2c-0.1-0.3-0.3-0.3-0.5,0     c0,0.2,0,0.5,0.2,0.7C132.1,39.7,132.7,37.5,131.9,37.7 M134.1,48c0-0.3-0.5-0.2-0.6,0.1C133.2,48.8,134.1,48.1,134.1,48      M134.6,3.9c-0.4-0.2-1.9,0.9-0.2,0.6C134.9,4.4,135,4.2,134.6,3.9 M139.6,44.7c0,0.2,0.3,0.4,0.4,0.2     C140.2,44.8,140.1,44.6,139.6,44.7 M141.7,7.6c0-0.6-1.8,1.4-1.4,0.4c0.1-0.4-0.3-0.5-0.6,0.2c0.4,0-0.2,0.8,1.3,0.9     c0.1-0.4,0.2-0.7,0.5-1C141.5,7.9,141.6,7.8,141.7,7.6 M146.1,36.5C146.1,36.4,146.1,36.4,146.1,36.5l-0.1-0.1     C146.1,36.4,146.1,36.5,146.1,36.5 M152.5,4.7c0-0.2-0.2-0.3-0.3-0.4C152.4,4.9,152.5,4.9,152.5,4.7 M153.1,45     c-0.3-0.7-0.7-0.4-0.4,0C153.1,45.6,153.4,45.6,153.1,45 M155.3,11.3c-0.1-0.2-0.2-0.5-0.2-0.7c0-0.7-2-0.4-1.9-0.3     c0.6,0.2,1,0.5,1.4,1H155.3z M157.9,38.4c-0.1-0.4-0.5-0.3-0.6,0.2C157.1,39.4,158.1,39,157.9,38.4 M155.1,6.2     c0.4,0.2,0.5-0.5,0.8,0c1-0.5,2,0.7,2.4-0.4C158.9,4,153.5,5.2,155.1,6.2 M163.9,8.5c0-1-1.8-0.5-1.1-0.1     C163.2,8.7,163.9,8.7,163.9,8.5 M171.8,45.4c-0.2-0.4-0.3-0.8-0.4-1.2c0-0.7-2-0.4-1.9-0.3C170.9,44.3,171.3,46.2,171.8,45.4      M170.9,36.6c0.4,0.5,1,0,0.8-0.4H170C170.3,36.2,170.6,36.4,170.9,36.6 M170.4,2.5c0.4,0.2,0.5-0.5,0.8,0c1-0.5,2,0.7,2.4-0.4     C174.3,0.3,168.9,1.5,170.4,2.5 M175.4,9.8c0-0.2-0.2-0.3-0.3-0.4C175.3,9.9,175.4,10,175.4,9.8 M179.1,41.6     c0.3,0.3,0.8,0.4,1,0.2C181.2,40,178.4,40.9,179.1,41.6 M181.3,7.9c-0.5,0-0.7,0-0.7,0.3C180.5,9.3,183.4,8,181.3,7.9      M188.2,43.6c0-0.5-0.2-1.5-0.3-1.5C187.7,42.3,187.8,43.7,188.2,43.6 M190.8,4.8c-1.5-1,0.4,0.7-1.3,0.7c-1.4,0-2.4-2.2-2.4-0.9     c0,0.2,0.1,0.3,0.3,0.3c0.6,0,1.2,1.4,2,1C189.5,5.8,192.6,6.1,190.8,4.8 M199.1,36c0.2,0.4,0.4,1,0.7,0.3c0-0.1,0.1-0.2,0.1-0.3     H199.1z M196.1,8.2c0.6-0.1,0.6-0.3,0.2-0.6C195.9,7.4,194.4,8.6,196.1,8.2 M200.3,43.5c-0.2,0.3-0.3,0.3-0.4,0     c-0.5-1-1.3,0.9-1.6,0c-0.1-0.3-2.4-0.6-1.6,0.5c0.1-0.1,0.3,0,0.6,0.4c0.4,0.6,1,0.8,0.9,0.2c-0.1-0.5,0.5-0.7,1.6-0.6     C201.3,44.2,200.7,42.9,200.3,43.5 M202.4,4.1c0-0.3-0.5-0.2-0.6,0.1C201.5,5,202.4,4.3,202.4,4.1 M209.6,39.7     c0,0.1,0.2,0.2,0.4,0.2C211.1,39.9,209.6,39.2,209.6,39.7 M210.3,6.6c-1.3-0.4,0.1,0.8-0.3,1c-0.2,0.1-0.3,0.6,0,0.6     C210.1,8.3,211.5,7,210.3,6.6 M215.3,44.3c-0.1-0.3-0.5-0.4-0.5-0.1C214.8,44.4,214.9,44.5,215.3,44.3 M216.7,9.3     c0-1.1-2.3-1.7-1.1-0.3C215.8,9.4,216.7,9.6,216.7,9.3 M222.3,5.6c-0.1-0.7-1.5-0.9-0.8,0C221.9,6.1,222.3,6.1,222.3,5.6      M224.7,41.5c0-0.5-1.1,0-0.7,0.6c0.2,0.2,0.7,1.6,1.2,0.6C225.6,41.8,224.7,42.1,224.7,41.5 M231.2,39.7c0-0.1-0.1-0.3-0.3-0.3     C230.9,40,231.2,40,231.2,39.7 M233.7,5.4c-0.2,0-0.3,0-0.4-0.1c-0.3,0.2-0.1,0.4,0.1,0.5C234.2,6.4,234.3,5,233.7,5.4      M240.8,6.8c-0.5-0.1-0.6,0,0,0.5C241.6,8.2,241.9,7,240.8,6.8 M246.7,19.6c0.2,0.5,0.3,0.6,0.3,0.4S246.8,19.7,246.7,19.6      M242.8,40.1c-1.2,0.2,0.4,0.5,0.6,0.2C243.7,40,243.5,40,242.8,40.1 M244.9,27.1c-0.2-0.4-0.8-0.1-0.8,0.1     S244.7,27.3,244.9,27.1 M245.8,34.2c0.4,0.2,0.5-0.5,0.8,0c1-0.5,2,0.7,2.4-0.4C249.6,32.1,244.2,33.3,245.8,34.2 M250.4,12.3     c0.2,0.3,0.6,0.2,0.8-0.2C251.6,11.2,250.3,12.1,250.4,12.3 M249.8,41.2c-0.2,0.2-0.1,0.3,0.1,0.6     C251.3,43.2,250.6,40.4,249.8,41.2 M251,22.6c-0.5,0-0.7,0-0.7,0.3C250.3,24,253.2,22.7,251,22.6 M254.7,25.8     c-0.8-0.3-1.6-0.4-2.4-0.2c-0.1-0.2-1-0.3-1-0.1C251.3,26.5,255.4,26.7,254.7,25.8 M258.6,19.1c-0.1,0-0.3,0.1-0.3,0.3     C258.3,20.1,259.3,19.1,258.6,19.1 M152.2,49.2c-0.5,0-1.1,0-1.6,0.1C151.1,49.4,151.6,49.3,152.2,49.2 M175,48.3     c-0.2,0-1,0.1-1.8,0.1s-1.7,0.1-1.9,0c-1.3,0-2.5,0.1-3.8,0.2c-1.7,0.2-0.7,0.3,1.2,0.1c0.4-0.2,1-0.3,1.2-0.2c0,0,0,0.1,0.1,0.1     c0.2,0,0.5,0,0.8-0.1c0.7-0.1,1.4-0.1,2.2-0.1c1.3,0,5.3-0.3,5.8-0.4C177.4,48.1,176.2,48.2,175,48.3 M158.8,48.6     c0.7,0,1.5,0,2.2-0.1C160.3,48.4,159.5,48.5,158.8,48.6 M149.6,48.8l-2.1,0.1c-1.5,0.1-3.1,0.2-3.5,0.3c-0.6,0.1-1.2,0.1-1.7,0.1     c-0.8,0.2,0.2,0.1,0.7,0c1.3-0.1,2-0.1,2.6-0.1c0.6-0.1,1.5-0.1,2.1-0.1c1,0,1.9-0.1,2.8-0.3C150.3,48.8,150,48.8,149.6,48.8      M2,26.2c-0.1-0.5-0.1,0.2,0,1.9C2.1,27.4,2.1,26.8,2,26.2 M0.4,29.8c-0.1,0.9-0.1,1.8,0,2.7c0,0.5,0.1,1.3,0,1.8     C0.5,32.8,0.5,31.3,0.4,29.8 M2.6,20.5c0.1-0.4,0.1-0.8,0.1-1.2C2.6,19,2.5,20.5,2.6,20.5 M2.4,26.4c0-0.6,0-1.1,0-1.7     c0-1.2-0.2-1.1-0.2,0.1C2.1,26.4,2.3,27.9,2.4,26.4 M186,0.4c0.2,0,0.4,0,0.6,0l1.4-0.1c1-0.1,2.2-0.1,2.6-0.2     c1.2-0.1,1.1-0.2-0.1-0.1c-0.6,0-1.7,0.1-2.6,0.2l-1.3,0.1C186.3,0.3,186.2,0.4,186,0.4 M177.8,0.3c2.2,0,4.9-0.2,3.6-0.3     c-1.3,0-2.7,0-4,0.1C176.7,0.3,176.7,0.3,177.8,0.3 M165.6,0.3h0.2c3-0.2,4.2-0.3,2.6-0.3c-0.5,0-1.3,0-1.8,0.1     c-0.4,0-0.8,0.1-1.3,0.1C165.4,0.2,165.5,0.3,165.6,0.3 M0.9,24.4c0-0.1,0.1-0.3,0-0.4c0-0.1-0.1-0.2-0.1-0.4     c0-0.1,0-0.2,0.1-0.3c0-0.9,0-0.9-0.1-0.3C0.8,23.4,0.8,23.9,0.9,24.4 M20.8,55.1l-3.2,0.1c-1,0,0.5,0,2.5,0c1.4,0,2.1,0,2.7-0.1     C24.1,55,23.5,55,20.8,55.1 M30.4,54.9c0.4,0,1.3,0,2.4,0c1.7-0.1,1.7-0.1-0.2-0.1C30.5,54.8,29.4,54.8,30.4,54.9 M17.9,54.9     c-0.3,0-0.6,0-0.9,0.1C17,55,18.3,55,17.9,54.9 M21.3,54.4c1.5-0.1,1.9-0.1,1-0.1c-0.5,0-1.1,0-2.3,0.1     C18.7,54.5,19.5,54.5,21.3,54.4 M1.5,31.6L1.5,31.6c-0.1,1.1-0.1,2.1-0.1,3.1c0,2.7,0.1,3.3,0.3,1.4c0.1-1,0.1-2.1,0-3.1     c0-0.3-0.1-0.9-0.1-1.3C1.6,31.6,1.5,31.6,1.5,31.6 M0.3,19.5c0,0.6,0,1.1,0.1,1.3c0,0.2,0,0.3,0.1,0.2c0-0.2,0-0.3,0-0.5     c0-0.4,0-1,0-1.7c0-5.4,0-5.4-0.2-5.8C0.2,12.6,0,12.5,0,14.1c0,4.6,0,4.8,0.1,4.2C0.2,17.8,0.3,18.1,0.3,19.5 M1.5,31.3     C1.5,31.3,1.6,31.3,1.5,31.3C1.6,30.7,1.6,30.7,1.5,31.3 M155.6,48.6c-1-0.1-1.9,0-2.9,0.2c-0.4,0.2,0,0.2,2.2,0     C156.5,48.6,156.6,48.6,155.6,48.6"/>
			</g>
		</g>
	</g>
</svg>